<svg id="Layer_1" data-name="Layer 1" xmlns="http://www.w3.org/2000/svg" viewBox="0 0 360 360"><defs><style>.cls-1{fill:#885ff9;}</style></defs><title>Logo mark-  Ligh</title><path class="cls-1" d="M326.06,189.41a141.17,141.17,0,0,1-8.74,42.76c-13.22,35.35-41.24,64.89-75.84,81.24a14.81,14.81,0,0,1-21.07-14.36,14.64,14.64,0,0,1,2.56-7.44,14.35,14.35,0,0,1,6-5,116.3,116.3,0,0,0,65.89-126.7,114.22,114.22,0,0,0-3.11-12.7,118.29,118.29,0,0,0-17.49-34.88c-8.5-11.69-18-21.06-27.58-27.09-5.89-3.73-12-7.6-18.67-9.53a36,36,0,0,0-18.83-.39c-14.66,3.82-18.83,26.36-19.73,44.61-.13,2.73-.22,5.7-.24,9.08-.06,7.6.32,15.81,1.14,25,.36,4,.6,9.11,1.23,13.06l6.7.27,38.62,2.48a15.31,15.31,0,0,1,14.41,14.52A14.91,14.91,0,0,1,246.19,196a14.74,14.74,0,0,1-10.79,3.68l-39.05-2.51A283.43,283.43,0,0,1,198,241.79a138.8,138.8,0,0,1-4.44,30.06l-.06.22a4,4,0,0,1-.19.65v.06l-.21.68c-4.64,15.8-12.49,27.39-23.33,34.36L168,309l-.3,0-4.25,2.34L162,312.59l-1.28,0c-10.68,3.84-23.24,4.14-37.41.84-17.23-4-30.72-14.66-41.64-24.58a146.49,146.49,0,0,1,38.8-241.64,15,15,0,0,1,21.12,14.61,15.19,15.19,0,0,1-2.61,7.52,14.63,14.63,0,0,1-6.11,5.09c-38.78,17.5-66.16,55.79-68.94,99A116.33,116.33,0,0,0,119.93,280.6l.08,0c9.79,5.2,19.33,6.64,28.32,4.3,14.66-3.84,18.83-26.38,19.76-44.64.13-3,.21-6.1.21-9.21.06-7.41-.32-15.34-1.14-25-.33-3.65-.82-7.33-1.39-10.93l-42.65-2.75c-7-.44-13.27-6.08-14.2-12.78a14.91,14.91,0,0,1,16-17L161.38,165a284.32,284.32,0,0,1-1.85-46.57c.65-13.47,2.67-25.21,5.94-35l.11-.38a69.4,69.4,0,0,1,8.5-17.28A64.38,64.38,0,0,1,184.19,55l.85-.79c1.33-1.34,3.73-2.89,8.06-5,18.15-8.8,40.83-5.69,67.37,9.21l.57.33a146.51,146.51,0,0,1,14.61,11.12,141.76,141.76,0,0,1,29.81,35.45,149,149,0,0,1,16.44,40.55,157.26,157.26,0,0,1,3.65,21.7A152.44,152.44,0,0,1,326.06,189.41Z"/><path d="M233.1,163.47c0-.06,0-.11,0-.17s0,.11,0,.17c0-.22.06-.41.08-.57a.45.45,0,0,0,0-.11l.06-.67h0l.13,0h0C233.3,162.57,233.21,163,233.1,163.47Z"/></svg>