<svg id="Layer_1" data-name="Layer 1" xmlns="http://www.w3.org/2000/svg" viewBox="0 0 576 180"><defs><style>.cls-1{fill:#fff;}</style></defs><title>Logo - workmark white</title><path class="cls-1" d="M134.35,93.53a53.2,53.2,0,0,1-3.28,16,56.06,56.06,0,0,1-28.47,30.5,5.57,5.57,0,0,1-6.95-8.19A5.46,5.46,0,0,1,97.9,130a43.5,43.5,0,0,0,23.57-52.32,44.23,44.23,0,0,0-6.57-13.09,39.34,39.34,0,0,0-10.35-10.17,28.25,28.25,0,0,0-7-3.58,13.49,13.49,0,0,0-7.07-.15c-5.51,1.44-7.07,9.9-7.41,16.75,0,1-.08,2.14-.09,3.41,0,2.85.12,5.93.43,9.4.13,1.48.22,3.41.46,4.9l2.52.1,14.49.93a5.74,5.74,0,0,1,5.41,5.45,5.62,5.62,0,0,1-6,5.75l-14.66-.94a106.27,106.27,0,0,1,.61,16.75,51.92,51.92,0,0,1-1.66,11.29l0,.08a2.25,2.25,0,0,1-.08.24v0l-.08.26c-1.74,5.93-4.68,10.28-8.75,12.9l-.67.44H74.9l-1.6.88-.55.48-.48,0c-4,1.44-8.73,1.55-14,.32-6.47-1.51-11.53-5.51-15.63-9.23a55,55,0,0,1,14.56-90.7,5.63,5.63,0,0,1,7.93,5.48,5.69,5.69,0,0,1-1,2.82,5.57,5.57,0,0,1-2.29,1.92A44.25,44.25,0,0,0,35.94,87.51a43.64,43.64,0,0,0,21,40.25h0a14.48,14.48,0,0,0,10.63,1.62c5.5-1.45,7.06-9.91,7.41-16.76,0-1.12.08-2.29.08-3.46,0-2.78-.12-5.76-.43-9.37-.12-1.37-.3-2.75-.52-4.1l-16-1a5.84,5.84,0,0,1-5.33-4.8,5.6,5.6,0,0,1,6-6.39l13.69.88a105.94,105.94,0,0,1-.7-17.48,49.24,49.24,0,0,1,2.23-13.13l0-.14a26,26,0,0,1,3.19-6.49,24.52,24.52,0,0,1,3.8-4l.31-.29a11.68,11.68,0,0,1,3-1.87c6.82-3.31,15.33-2.14,25.29,3.45l.21.13a52.3,52.3,0,0,1,5.49,4.17A53.46,53.46,0,0,1,126.62,62a55.88,55.88,0,0,1,6.17,15.22,59.87,59.87,0,0,1,1.37,8.14A58.78,58.78,0,0,1,134.35,93.53Z"/><path class="cls-1" d="M148.4,60.57a5.76,5.76,0,0,1,5.83-5.92h40.9a5.35,5.35,0,0,1,0,10.7h-35V84.94h30.47a5.35,5.35,0,1,1,0,10.7H160.16v23.22a5.84,5.84,0,0,1-5.93,5.92,5.76,5.76,0,0,1-5.83-5.92Z"/><path class="cls-1" d="M248.16,119a5.6,5.6,0,0,1-5.74,5.83,5.71,5.71,0,0,1-5.73-5.83v-3c-3.44,5-8.41,9.27-16.53,9.27-11.94,0-18.92-7.93-18.92-20.16v-28a5.78,5.78,0,0,1,11.56,0v24.56c0,8.4,4.3,13.09,11.56,13.09s12.33-4.88,12.33-13.28V77.1a5.52,5.52,0,0,1,5.73-5.73,5.63,5.63,0,0,1,5.74,5.73Z"/><path class="cls-1" d="M253.22,77.1A5.52,5.52,0,0,1,259,71.37a5.63,5.63,0,0,1,5.74,5.73v3c3.34-5,8.4-9.26,16.62-9.26,11.85,0,18.82,7.93,18.82,20.16v28a5.78,5.78,0,1,1-11.56,0V94.4c0-8.41-4.2-13.09-11.56-13.09s-12.32,4.87-12.32,13.28V119a5.6,5.6,0,0,1-5.74,5.83,5.71,5.71,0,0,1-5.73-5.83Z"/><path class="cls-1" d="M303.58,98.31v-.19A27,27,0,0,1,330.71,70.8c8.41,0,14.05,2.77,18.54,6.68a5.49,5.49,0,0,1,1.72,4,5.18,5.18,0,0,1-5.26,5.25,4.94,4.94,0,0,1-3.44-1.24c-3.15-2.68-6.69-4.68-11.65-4.68-9,0-15.58,7.64-15.58,17.1v.19c0,9.56,6.69,17.2,16.15,17.2a17.32,17.32,0,0,0,11.94-4.87,4.63,4.63,0,0,1,3.25-1.25,5,5,0,0,1,3.34,8.7c-4.68,4.49-10.31,7.45-19.1,7.45A26.71,26.71,0,0,1,303.58,98.31Z"/><path class="cls-1" d="M354.69,119a4.89,4.89,0,0,1-2.19-4,4.65,4.65,0,0,1,4.78-4.68,4.71,4.71,0,0,1,2.48.66c5.25,3.44,10.41,5.16,15.29,5.16,5.35,0,8.4-2.29,8.4-6v-.19c0-4.3-5.63-5.44-11.84-7.54C363.87,100,355.17,97,355.17,87v-.19C355.17,77,363.29,71,373.61,71a37.18,37.18,0,0,1,16.53,4.2,4.82,4.82,0,0,1,2.77,4.49,4.64,4.64,0,0,1-4.77,4.68,4.36,4.36,0,0,1-2.3-.57c-4.3-2.29-8.69-3.63-12.42-3.63-4.87,0-7.64,2.29-7.64,5.44v.2c0,3.82,5.54,5.63,11.94,7.64,7.65,2.29,16.34,5.83,16.34,15.19v.19c0,11-8.41,16.34-19.4,16.34A36.14,36.14,0,0,1,354.69,119Z"/><path class="cls-1" d="M401.71,109.87V81.78h-2.3a5,5,0,1,1,0-9.93h2.3V62.58a5.62,5.62,0,0,1,5.73-5.73,5.74,5.74,0,0,1,5.73,5.73v9.27h9.94a5.06,5.06,0,0,1,5,5,5,5,0,0,1-5,5h-9.94v26.28c0,4.87,2.49,6.78,6.69,6.78a25.17,25.17,0,0,0,3.25-.38,4.79,4.79,0,0,1,4.78,4.78,4.49,4.49,0,0,1-3.06,4.39,20.19,20.19,0,0,1-8.12,1.44C407.92,125.07,401.71,121.24,401.71,109.87Z"/><path class="cls-1" d="M429.89,109.11v-.19c0-11.18,8.89-16.82,21.69-16.82a41.11,41.11,0,0,1,14.33,2.2V93c0-7.64-4.58-11.75-13.28-11.75a32.77,32.77,0,0,0-11.75,2.1,4.69,4.69,0,0,1-1.81.38,4.81,4.81,0,0,1-4.88-4.77,4.74,4.74,0,0,1,3.06-4.59,42.66,42.66,0,0,1,16.91-3.15c7.74,0,13.57,2.1,17.3,5.83s5.54,9.17,5.54,16v26.08a5.57,5.57,0,0,1-5.54,5.64c-3.35,0-5.64-2.39-5.64-5v-2.29c-3.54,4.3-9.08,7.74-17.2,7.74C438.68,125.26,429.89,119.52,429.89,109.11Zm36.22-3.73v-3.82a36.22,36.22,0,0,0-12.33-2.1c-8,0-12.61,3.34-12.61,9v.19c0,5.35,4.68,8.22,10.51,8.22C459.8,116.85,466.11,112.17,466.11,105.38Z"/><path class="cls-1" d="M483,77.1a5.52,5.52,0,0,1,5.73-5.73,5.63,5.63,0,0,1,5.73,5.73v5.83c3-6.88,8.41-11.75,13.86-11.75A5.35,5.35,0,0,1,514,76.91a5.43,5.43,0,0,1-4.59,5.54c-8.7,1.53-14.91,8.12-14.91,20.83V119a5.6,5.6,0,0,1-5.73,5.83A5.71,5.71,0,0,1,483,119Z"/><path class="cls-1" d="M525,109.87V81.78h-2.3a5,5,0,0,1,0-9.93H525V62.58a5.62,5.62,0,0,1,5.73-5.73,5.74,5.74,0,0,1,5.73,5.73v9.27h9.94a5.06,5.06,0,0,1,5,5,5,5,0,0,1-5,5h-9.94v26.28c0,4.87,2.49,6.78,6.69,6.78a25.17,25.17,0,0,0,3.25-.38,4.79,4.79,0,0,1,4.78,4.78,4.49,4.49,0,0,1-3.06,4.39,20.19,20.19,0,0,1-8.12,1.44C531.21,125.07,525,121.24,525,109.87Z"/></svg>