<svg viewBox="332.23099009900994 194.06128 177.4280198019802 202.39520000000002" xmlns="http://www.w3.org/2000/svg" data-name="Layer 1" id="Layer_1" style="max-height: 500px" width="177.4280198019802" height="202.39520000000002"><defs><style>.cls-1{fill:#fff;}</style></defs><title>uninetArtboard 1 copy 3</title><path d="M391.54,293.07a31,31,0,0,0,2.62,12.47l-21.09,21.09-5.82,5.82C359.76,340,346.77,336,345,325.5a77,77,0,0,1-1-12.6V221.08A13.13,13.13,0,0,1,357.14,208h23.77a13.12,13.12,0,0,1,12.73,9.93l12.32,49A30.94,30.94,0,0,0,391.54,293.07Z" class="cls-1"/><path d="M416.22,324.39v49.77a13.09,13.09,0,0,1-16.59,12.66,76.93,76.93,0,0,1-31.86-18.34,13.08,13.08,0,0,1-.09-18.67l32.92-32.92Z" class="cls-1"/><polygon points="422.5 294.45 422.5 294.98 422.07 294.55 422.5 294.45" class="cls-1"/><path d="M497.87,221.08v50a13.13,13.13,0,0,1-13.13,13.13H452.16a30.94,30.94,0,0,0-29.67-22.07h-4.74s-.07,0-.07-.07l-9.47-37.75A13.13,13.13,0,0,1,420.94,208h63.8A13.13,13.13,0,0,1,497.87,221.08Z" class="cls-1"/><path d="M484.76,296.72a13.12,13.12,0,0,1,13.12,13.13v3a76.93,76.93,0,0,1-51.53,72.63,13.16,13.16,0,0,1-17.57-12.36V323.38a31,31,0,0,0,24.47-26.63s0,0,0,0Z" class="cls-1"/><polygon points="422.5 294.45 422.5 294.98 422.07 294.55 422.5 294.45" class="cls-1"/><polygon points="422.5 294.45 422.5 294.98 422.07 294.55 422.5 294.45" class="cls-1"/><path d="M441.23,284.17a20.74,20.74,0,0,0-18.74-11.84c-.72,0-1.47,0-2.19.11a20.7,20.7,0,0,0-18.5,20.63,20.62,20.62,0,0,0,20.69,20.69,20.75,20.75,0,0,0,18.74-29.59ZM422.49,295l-.42-.44.42-.09Z" class="cls-1"/><polygon points="422.5 294.45 422.5 294.98 422.07 294.55 422.5 294.45" class="cls-1"/></svg>